<svg width="800" height="436" viewBox="0 0 800 436" fill="none" xmlns="http://www.w3.org/2000/svg">
<path d="M243.956 289.586C284.012 289.586 316.484 257.115 316.484 217.059C316.484 177.003 284.012 144.531 243.956 144.531C203.9 144.531 171.429 177.003 171.429 217.059C171.429 257.115 203.9 289.586 243.956 289.586ZM72.5275 434.641C112.583 434.641 145.055 402.169 145.055 362.114C145.055 322.058 112.583 289.586 72.5275 289.586C32.4717 289.586 0 322.058 0 362.114C0 402.169 32.4717 434.641 72.5275 434.641ZM727.473 434.641C767.528 434.641 800 402.169 800 362.114C800 322.058 767.528 289.586 727.473 289.586C687.417 289.586 654.945 322.058 654.945 362.114C654.945 402.169 687.417 434.641 727.473 434.641Z" fill="#572D1C"/>
<path d="M489.267 220.115C486.948 195.884 485.767 175.716 467.205 161.541C443.696 143.59 417.066 155.238 384.264 143.398C352.032 135.6 328.125 106.983 328.125 72.8732C328.125 32.7645 361.181 0.25 401.957 0.25C432.158 0.25 458.124 18.0859 469.561 43.633C487.066 76.8816 475.689 110.719 497.682 127.763C523.723 147.944 558.832 133.165 598.007 152.287C610.594 158.071 621.249 167.245 628.756 178.615C636.264 189.986 640.625 203.552 640.625 218.12C640.625 252.23 616.718 280.847 584.486 288.644C551.684 300.484 525.054 288.836 501.545 306.788C475.109 326.974 489.262 360.746 467.717 396.42C455.488 419.911 430.632 435.989 401.957 435.989C361.181 435.989 328.125 403.475 328.125 363.366C328.125 334.23 345.568 309.102 370.743 297.533C409.918 278.412 445.027 293.191 471.068 273.009C486.091 261.367 489.267 243.407 489.267 220.115Z" fill="#F7B88B"/>
</svg>
